<?xml version="1.0" encoding="UTF-8"?>
<!DOCTYPE svg PUBLIC "-//W3C//DTD SVG 1.1//EN" "http://www.w3.org/Graphics/SVG/1.1/DTD/svg11.dtd">
<svg width="179pt" height="116pt" viewBox="0 0 179 116" version="1.1" xmlns="http://www.w3.org/2000/svg">
<g id="#C8102Eff">
<path fill="#C8102E" opacity="1.00" d=" M 58.90 0.00 L 63.27 0.00 C 72.21 0.70 80.74 6.58 83.76 15.15 C 86.17 21.49 85.09 28.72 81.64 34.47 C 77.78 34.52 73.91 34.47 70.05 34.56 C 76.07 29.82 77.66 20.37 72.70 14.32 C 67.62 7.26 56.12 6.87 50.57 13.56 C 44.96 19.51 46.24 29.65 52.60 34.55 C 48.78 34.47 44.95 34.49 41.12 34.52 C 36.85 27.94 36.35 19.10 40.20 12.21 C 43.86 5.29 51.23 0.88 58.90 0.00 Z"/>
<path fill="#C8102E" opacity="1.00" d=" M 1.95 1.44 C 4.72 1.43 7.48 1.43 10.25 1.45 C 10.25 5.86 10.24 10.27 10.25 14.69 C 14.71 14.69 19.17 14.69 23.62 14.68 C 23.63 10.27 23.62 5.86 23.63 1.44 C 26.38 1.43 29.13 1.43 31.88 1.44 C 31.88 12.46 31.88 23.48 31.87 34.49 C 29.13 34.51 26.38 34.51 23.63 34.49 C 23.62 30.37 23.63 26.25 23.63 22.13 C 19.17 22.12 14.71 22.12 10.25 22.13 C 10.25 26.25 10.26 30.37 10.24 34.49 C 7.48 34.51 4.71 34.51 1.94 34.49 C 1.94 23.48 1.93 12.46 1.95 1.44 Z"/>
<path fill="#C8102E" opacity="1.00" d=" M 90.75 1.45 C 92.79 1.44 94.83 1.43 96.86 1.40 C 100.86 7.22 104.70 13.14 108.64 18.99 C 112.57 13.15 116.44 7.27 120.37 1.43 C 122.43 1.43 124.49 1.44 126.56 1.44 C 126.56 12.46 126.58 23.48 126.55 34.50 C 123.79 34.50 121.02 34.50 118.25 34.50 C 118.24 29.03 118.25 23.55 118.25 18.08 C 115.80 21.82 113.38 25.58 110.93 29.31 C 109.40 29.31 107.87 29.31 106.34 29.30 C 103.90 25.52 101.46 21.75 99.00 17.98 C 99.00 23.49 99.00 28.99 99.01 34.49 C 96.26 34.51 93.51 34.51 90.76 34.49 C 90.74 23.48 90.75 12.47 90.75 1.45 Z"/>
<path fill="#C8102E" opacity="1.00" d=" M 133.32 1.44 C 141.69 1.44 150.06 1.43 158.43 1.44 C 158.44 3.84 158.44 6.23 158.44 8.62 C 152.83 8.64 147.23 8.61 141.63 8.63 C 141.62 10.61 141.62 12.58 141.63 14.56 C 146.52 14.57 151.41 14.55 156.31 14.57 C 156.31 16.92 156.31 19.27 156.31 21.62 C 151.42 21.64 146.52 21.61 141.63 21.63 C 141.62 23.52 141.62 25.41 141.63 27.30 C 147.23 27.33 152.83 27.30 158.44 27.32 C 158.44 29.71 158.44 32.10 158.43 34.50 C 150.06 34.51 141.70 34.49 133.33 34.51 C 133.30 23.48 133.31 12.46 133.32 1.44 Z"/>
<path fill="#C8102E" opacity="1.00" d=" M 53.40 26.22 C 58.68 26.16 63.97 26.16 69.25 26.23 C 67.90 29.55 64.64 32.20 60.92 31.91 C 57.47 31.84 54.66 29.29 53.40 26.22 Z"/>
<path fill="#C8102E" opacity="1.00" d=" M 3.31 48.29 C 9.25 40.19 22.58 39.14 29.67 46.26 C 31.89 48.37 33.04 51.26 33.98 54.10 C 31.09 54.13 28.20 54.14 25.32 54.10 C 23.25 49.95 18.10 48.08 13.85 49.95 C 7.19 52.50 6.50 62.97 12.41 66.70 C 16.72 69.60 23.03 68.02 25.32 63.31 C 28.20 63.29 31.08 63.31 33.97 63.35 C 32.28 70.99 24.80 76.44 17.02 75.86 C 8.47 76.02 0.62 69.09 0.00 60.50 L 0.00 57.25 C 0.33 54.05 1.34 50.86 3.31 48.29 Z"/>
<path fill="#C8102E" opacity="1.00" d=" M 38.51 42.18 C 46.17 42.84 54.58 40.48 61.64 44.33 C 68.75 48.37 68.23 59.82 61.24 63.74 C 63.83 67.57 66.41 71.41 68.99 75.24 C 65.76 75.25 62.53 75.25 59.30 75.24 C 57.19 72.06 55.12 68.86 53.01 65.69 C 50.94 65.68 48.88 65.69 46.82 65.69 C 46.81 68.88 46.82 72.06 46.80 75.25 C 44.03 75.25 41.27 75.25 38.50 75.24 C 38.50 64.22 38.49 53.20 38.51 42.18 M 46.82 49.45 C 46.81 52.38 46.81 55.31 46.82 58.24 C 50.16 58.01 54.02 59.04 56.93 56.93 C 59.09 55.39 58.90 51.78 56.59 50.47 C 53.63 48.79 50.06 49.63 46.82 49.45 Z"/>
<path fill="#C8102E" opacity="1.00" d=" M 72.94 42.19 C 81.29 42.18 89.64 42.19 97.99 42.18 C 98.00 44.58 98.00 46.98 98.00 49.37 C 92.41 49.38 86.83 49.37 81.25 49.38 C 81.25 51.35 81.25 53.33 81.26 55.31 C 86.15 55.32 91.05 55.30 95.94 55.32 C 95.94 57.67 95.94 60.03 95.92 62.38 C 91.03 62.37 86.14 62.37 81.25 62.38 C 81.25 64.27 81.25 66.16 81.25 68.06 C 86.83 68.07 92.41 68.06 97.99 68.06 C 98.00 70.45 98.00 72.85 97.99 75.25 C 89.64 75.25 81.29 75.25 72.94 75.24 C 72.93 64.23 72.93 53.21 72.94 42.19 Z"/>
<path fill="#C8102E" opacity="1.00" d=" M 103.51 42.19 C 111.59 42.70 120.60 40.46 127.79 45.25 C 135.20 49.94 136.84 60.92 131.97 67.98 C 128.90 72.57 123.38 75.03 117.97 75.20 C 113.15 75.33 108.32 75.21 103.51 75.24 C 103.50 64.22 103.49 53.20 103.51 42.19 M 111.82 49.63 C 111.81 55.69 111.81 61.75 111.82 67.81 C 115.52 67.76 119.71 68.33 122.81 65.83 C 127.30 62.61 127.53 55.18 123.12 51.79 C 120.00 49.08 115.63 49.65 111.82 49.63 Z"/>
<path fill="#C8102E" opacity="1.00" d=" M 139.19 42.19 C 141.96 42.18 144.72 42.18 147.49 42.19 C 147.50 53.21 147.51 64.23 147.49 75.24 C 144.72 75.25 141.96 75.25 139.19 75.24 C 139.18 64.23 139.18 53.21 139.19 42.19 Z"/>
<path fill="#C8102E" opacity="1.00" d=" M 151.82 42.19 C 160.88 42.18 169.94 42.19 179.00 42.19 L 179.00 49.56 C 175.83 49.56 172.67 49.56 169.51 49.57 C 169.48 58.13 169.52 66.69 169.49 75.25 C 166.77 75.25 164.04 75.25 161.32 75.25 C 161.29 66.69 161.32 58.13 161.31 49.58 C 158.14 49.57 154.98 49.56 151.82 49.56 C 151.81 47.10 151.81 44.65 151.82 42.19 Z"/>
<path fill="#C8102E" opacity="1.00" d=" M 2.25 82.88 C 9.53 83.27 17.07 81.88 24.16 83.95 C 30.61 86.00 31.25 95.80 25.36 98.94 C 30.00 100.38 32.22 105.97 30.24 110.32 C 28.76 113.92 24.79 115.47 21.19 116.00 L 2.25 116.00 C 2.25 104.96 2.24 93.92 2.25 82.88 M 10.57 89.70 C 10.56 91.96 10.56 94.22 10.57 96.49 C 13.59 96.32 16.80 97.02 19.68 95.87 C 21.98 94.93 22.28 91.09 19.79 90.19 C 16.82 89.24 13.63 89.84 10.57 89.70 M 10.57 102.57 C 10.56 104.77 10.56 106.97 10.57 109.18 C 13.95 109.04 17.44 109.61 20.74 108.68 C 23.30 107.90 23.55 103.89 20.91 103.03 C 17.55 102.13 14.01 102.73 10.57 102.57 Z"/>
<path fill="#C8102E" opacity="1.00" d=" M 45.40 82.89 C 48.00 82.89 50.60 82.87 53.20 82.80 C 58.20 93.76 62.62 104.98 67.48 116.00 L 58.61 116.00 C 57.80 114.13 57.07 112.23 56.34 110.33 C 51.68 110.30 47.02 110.31 42.36 110.32 C 41.63 112.22 40.92 114.13 40.13 116.00 L 31.26 116.00 C 36.03 104.99 40.68 93.93 45.40 82.89 M 45.06 103.44 C 47.91 103.44 50.77 103.44 53.63 103.43 C 52.21 99.76 50.78 96.10 49.35 92.43 C 47.90 96.10 46.48 99.76 45.06 103.44 Z"/>
<path fill="#C8102E" opacity="1.00" d=" M 70.13 82.87 C 72.27 82.87 74.42 82.88 76.57 82.94 C 81.80 89.16 87.13 95.29 92.43 101.45 C 92.45 95.26 92.42 89.07 92.44 82.88 C 95.19 82.87 97.94 82.87 100.68 82.88 C 100.70 93.92 100.68 104.96 100.69 116.00 L 94.28 116.00 C 88.94 110.05 83.74 103.98 78.44 97.99 C 78.43 104.00 78.44 110.00 78.44 116.00 L 70.12 116.00 C 70.13 104.96 70.11 93.91 70.13 82.87 Z"/>
<path fill="#C8102E" opacity="1.00" d=" M 107.44 82.89 C 110.21 82.87 112.98 82.87 115.74 82.88 C 115.76 87.91 115.74 92.93 115.76 97.96 C 120.17 92.95 124.52 87.88 128.94 82.88 C 132.22 82.87 135.50 82.87 138.78 82.89 C 134.57 87.74 130.33 92.57 126.12 97.42 C 130.71 103.61 135.23 109.85 139.86 116.00 L 129.46 116.00 C 126.44 111.96 123.58 107.81 120.60 103.74 C 118.98 105.58 117.37 107.43 115.77 109.28 C 115.75 111.52 115.75 113.76 115.75 116.00 L 107.44 116.00 C 107.44 104.96 107.43 93.92 107.44 82.89 Z"/>
</g>
</svg>