<svg width="66" height="30" viewBox="0 0 66 30" fill="none" xmlns="http://www.w3.org/2000/svg">
<path d="M65.9999 27.7159V0.412231H21.2259L0.208984 27.7159H65.9999Z" fill="#EFEFEF"/>
<path d="M38.4978 24.2951L47.4015 15.3922C49.5889 13.1939 49.9077 9.59978 47.8412 7.30259C47.3229 6.72369 46.692 6.25653 45.9871 5.92965C45.2822 5.60277 44.518 5.42304 43.7413 5.40144C42.9646 5.37984 42.1916 5.51682 41.4696 5.80401C40.7476 6.0912 40.0917 6.52258 39.5421 7.07178L37.8713 8.75345L36.4313 7.30259C34.2328 5.11533 30.6384 4.79658 28.341 6.86294C27.7621 7.38117 27.2949 8.01198 26.968 8.71684C26.6411 9.42171 26.4613 10.1858 26.4397 10.9625C26.4181 11.7392 26.5551 12.5121 26.8423 13.234C27.1295 13.956 27.5609 14.6118 28.1102 15.1614L37.2447 24.2951C37.4114 24.4603 37.6366 24.5529 37.8713 24.5529C38.1059 24.5529 38.3311 24.4603 38.4978 24.2951Z" fill="white" stroke="white" stroke-linecap="round" stroke-linejoin="round"/>
</svg>
