<svg width="31" height="31" viewBox="0 0 31 31" fill="none" xmlns="http://www.w3.org/2000/svg">
<circle cx="15.5479" cy="15.668" r="14.5" stroke="#EFEFEF"/>
<g clip-path="url(#clip0_35_3336)">
<path d="M21.8291 15.0586V13.0898H20.8447V15.0586H18.876V16.043H20.8447V18.0117H21.8291V16.043H23.7979V15.0586H21.8291Z" fill="#040406"/>
<path d="M12.9697 15.0586V17.0273H15.7545C15.348 18.1732 14.2534 18.9961 12.9697 18.9961C11.3416 18.9961 10.0166 17.6711 10.0166 16.043C10.0166 14.4148 11.3416 13.0898 12.9697 13.0898C13.6755 13.0898 14.3547 13.3428 14.8824 13.8025L16.1758 12.3181C15.2899 11.5463 14.152 11.1211 12.9697 11.1211C10.2558 11.1211 8.04785 13.329 8.04785 16.043C8.04785 18.7569 10.2558 20.9648 12.9697 20.9648C15.6836 20.9648 17.8916 18.7569 17.8916 16.043V15.0586H12.9697Z" fill="#040406"/>
</g>
<defs>
<clipPath id="clip0_35_3336">
<rect width="15.75" height="15.75" fill="white" transform="translate(8.04785 8.16797)"/>
</clipPath>
</defs>
</svg>
