<svg width="31" height="31" viewBox="0 0 31 31" fill="none" xmlns="http://www.w3.org/2000/svg">
<path d="M8.29133 15.4229L11.4677 16.6084L12.6971 20.5623C12.7758 20.8155 13.0854 20.9091 13.2909 20.7411L15.0615 19.2977C15.2471 19.1465 15.5114 19.1389 15.7054 19.2797L18.8988 21.5982C19.1187 21.758 19.4302 21.6375 19.4853 21.3719L21.8246 10.1192C21.8848 9.82895 21.5997 9.58684 21.3233 9.69372L8.28761 14.7225C7.96592 14.8466 7.96872 15.302 8.29133 15.4229ZM12.499 15.9774L18.7067 12.154C18.8182 12.0855 18.933 12.2364 18.8372 12.3252L13.7141 17.0875C13.534 17.2551 13.4178 17.4794 13.3849 17.7229L13.2104 19.0162C13.1873 19.1889 12.9447 19.206 12.8971 19.0389L12.2259 16.6805C12.149 16.4115 12.261 16.1242 12.499 15.9774Z" fill="#040406"/>
<circle cx="15.5479" cy="15.668" r="14.5" stroke="#EFEFEF"/>
</svg>
