<svg width="31" height="31" viewBox="0 0 31 31" fill="none" xmlns="http://www.w3.org/2000/svg">
<circle cx="15.5479" cy="15.668" r="14.5" stroke="#EFEFEF"/>
<path d="M23.272 11.809C22.7393 12.0451 22.1677 12.2052 21.5671 12.2766C22.1803 11.9094 22.6497 11.327 22.8722 10.635C22.297 10.9751 21.662 11.222 20.9855 11.3559C20.4437 10.778 19.6731 10.418 18.8184 10.418C17.1786 10.418 15.849 11.7475 15.849 13.3864C15.849 13.6189 15.8753 13.8459 15.9259 14.063C13.4585 13.9391 11.2706 12.7569 9.80631 10.9606C9.55034 11.3984 9.40473 11.9085 9.40473 12.453C9.40473 13.4832 9.92932 14.3922 10.7253 14.924C10.2386 14.9077 9.78098 14.7739 9.38032 14.5514V14.5885C9.38032 16.0266 10.4042 17.2268 11.7618 17.4999C11.513 17.5669 11.2508 17.604 10.9794 17.604C10.7877 17.604 10.6023 17.585 10.4205 17.5488C10.7985 18.7291 11.8947 19.5874 13.1936 19.611C12.1778 20.4069 10.8971 20.8799 9.50605 20.8799C9.26637 20.8799 9.03029 20.8655 8.79785 20.8392C10.112 21.6831 11.6723 22.1752 13.3491 22.1752C18.8112 22.1752 21.7969 17.651 21.7969 13.7274L21.7869 13.343C22.3703 12.9269 22.8749 12.4042 23.272 11.809Z" fill="#040406"/>
</svg>
