<svg width="31" height="31" viewBox="0 0 31 31" fill="none" xmlns="http://www.w3.org/2000/svg">
<circle cx="15.5479" cy="15.668" r="14.5" stroke="#EFEFEF"/>
<path d="M22.3808 19.7311C22.3625 19.6916 22.3454 19.6587 22.3295 19.6324C22.0664 19.1586 21.5636 18.577 20.8215 17.8875L20.8058 17.8717L20.798 17.864L20.7901 17.856H20.7821C20.4453 17.535 20.232 17.3191 20.1427 17.2086C19.9793 16.998 19.9427 16.7849 20.032 16.569C20.0951 16.4058 20.3321 16.0613 20.7425 15.5349C20.9584 15.2559 21.1294 15.0323 21.2556 14.8638C22.1663 13.6532 22.5611 12.8796 22.4399 12.5427L22.3929 12.464C22.3613 12.4166 22.2797 12.3732 22.1483 12.3337C22.0166 12.2942 21.8482 12.2877 21.6429 12.314L19.3692 12.3297C19.3323 12.3166 19.2797 12.3179 19.2112 12.3337C19.1428 12.3495 19.1085 12.3574 19.1085 12.3574L19.069 12.3772L19.0376 12.401C19.0112 12.4167 18.9823 12.4443 18.9507 12.4838C18.9192 12.5231 18.8929 12.5693 18.8719 12.6219C18.6244 13.2588 18.3429 13.8509 18.0271 14.3983C17.8323 14.7246 17.6535 15.0075 17.4901 15.247C17.327 15.4864 17.1901 15.6628 17.0797 15.7759C16.9691 15.8891 16.8693 15.9797 16.7796 16.0482C16.6901 16.1167 16.6218 16.1457 16.5745 16.1351C16.527 16.1245 16.4824 16.114 16.4401 16.1035C16.3665 16.0561 16.3072 15.9916 16.2626 15.9101C16.2177 15.8285 16.1875 15.7258 16.1717 15.6021C16.156 15.4784 16.1467 15.3719 16.1441 15.2824C16.1416 15.193 16.1428 15.0665 16.1481 14.9034C16.1536 14.7402 16.156 14.6297 16.156 14.5718C16.156 14.3718 16.1599 14.1547 16.1678 13.9205C16.1757 13.6862 16.1822 13.5007 16.1875 13.364C16.1929 13.2271 16.1954 13.0823 16.1954 12.9297C16.1954 12.777 16.1861 12.6573 16.1678 12.5704C16.1496 12.4837 16.1218 12.3994 16.0851 12.3178C16.0482 12.2362 15.9941 12.1731 15.9232 12.1283C15.8522 12.0836 15.7639 12.0481 15.6588 12.0217C15.3798 11.9586 15.0245 11.9244 14.5928 11.9191C13.6139 11.9086 12.9849 11.9718 12.706 12.1086C12.5954 12.1665 12.4954 12.2455 12.406 12.3454C12.3112 12.4612 12.298 12.5245 12.3664 12.5349C12.6823 12.5822 12.9059 12.6953 13.0375 12.8743L13.0849 12.9691C13.1218 13.0375 13.1586 13.1586 13.1955 13.3323C13.2323 13.5059 13.256 13.698 13.2665 13.9085C13.2927 14.2928 13.2927 14.6217 13.2665 14.8954C13.2401 15.1691 13.2152 15.3822 13.1915 15.5349C13.1677 15.6875 13.1322 15.8112 13.0849 15.9059C13.0375 16.0007 13.0059 16.0586 12.9901 16.0796C12.9743 16.1006 12.9611 16.1138 12.9507 16.119C12.8823 16.1453 12.8111 16.1586 12.7375 16.1586C12.6637 16.1586 12.5743 16.1217 12.4691 16.048C12.3638 15.9743 12.2546 15.873 12.1415 15.744C12.0283 15.615 11.9006 15.4348 11.7585 15.2032C11.6164 14.9717 11.469 14.698 11.3164 14.3822L11.1901 14.1532C11.1112 14.0058 11.0033 13.7913 10.8665 13.5098C10.7295 13.2282 10.6085 12.9557 10.5033 12.6926C10.4612 12.582 10.398 12.4979 10.3138 12.44L10.2743 12.4162C10.2481 12.3952 10.2059 12.3729 10.148 12.3491C10.0901 12.3254 10.0297 12.3083 9.96644 12.2978L7.80323 12.3136C7.58217 12.3136 7.43219 12.3636 7.35321 12.4636L7.3216 12.511C7.30582 12.5373 7.29785 12.5794 7.29785 12.6373C7.29785 12.6952 7.31364 12.7663 7.34525 12.8505C7.66104 13.5926 8.00445 14.3084 8.37549 14.9979C8.74653 15.6874 9.06896 16.2428 9.34258 16.6636C9.61625 17.0847 9.89521 17.4822 10.1794 17.8557C10.4637 18.2295 10.6518 18.469 10.7439 18.5742C10.836 18.6796 10.9084 18.7584 10.9611 18.811L11.1585 19.0005C11.2848 19.1268 11.4703 19.2781 11.715 19.4544C11.9598 19.6308 12.2309 19.8045 12.5282 19.9757C12.8257 20.1466 13.1717 20.2861 13.5665 20.3939C13.9612 20.5019 14.3454 20.5452 14.7191 20.5243H15.6271C15.8112 20.5084 15.9507 20.4505 16.0455 20.3506L16.0769 20.311C16.0981 20.2796 16.1178 20.2308 16.1361 20.1651C16.1546 20.0993 16.1637 20.0269 16.1637 19.948C16.1583 19.7217 16.1756 19.5178 16.215 19.3362C16.2543 19.1547 16.2992 19.0179 16.3493 18.9257C16.3994 18.8336 16.456 18.7559 16.519 18.6929C16.5821 18.6298 16.6271 18.5916 16.6534 18.5784C16.6797 18.5652 16.7006 18.5562 16.7164 18.5508C16.8427 18.5087 16.9913 18.5495 17.1626 18.6733C17.3337 18.7969 17.4941 18.9497 17.6442 19.1312C17.7942 19.3129 17.9745 19.5167 18.185 19.743C18.3956 19.9693 18.5798 20.1376 18.7376 20.2483L18.8954 20.343C19.0008 20.4062 19.1377 20.4641 19.3062 20.5168C19.4743 20.5693 19.6216 20.5825 19.7481 20.5562L21.7692 20.5247C21.9691 20.5247 22.1246 20.4916 22.2349 20.4259C22.3455 20.3601 22.4112 20.2877 22.4324 20.2088C22.4535 20.1299 22.4546 20.0404 22.4364 19.9403C22.4176 19.8404 22.3992 19.7706 22.3808 19.7311Z" fill="#040406"/>
</svg>
