<svg width="29" height="25" viewBox="0 0 29 25" fill="none" xmlns="http://www.w3.org/2000/svg">
<path d="M15.7124 23.2255L25.8374 13.1005C28.3249 10.6005 28.6874 6.51303 26.3374 3.90053C25.7481 3.24216 25.0307 2.71088 24.2291 2.33913C23.4274 1.96738 22.5584 1.76298 21.6752 1.73841C20.7919 1.71385 19.9129 1.86963 19.0918 2.19624C18.2708 2.52286 17.525 3.01344 16.8999 3.63803L14.9999 5.55053L13.3624 3.90053C10.8624 1.41303 6.77493 1.05053 4.16243 3.40053C3.50407 3.98988 2.97278 4.70729 2.60103 5.5089C2.22929 6.31052 2.02488 7.17951 2.00032 8.06279C1.97575 8.94607 2.13153 9.82508 2.45814 10.6461C2.78476 11.4672 3.27534 12.213 3.89993 12.838L14.2874 23.2255C14.477 23.4133 14.7331 23.5187 14.9999 23.5187C15.2668 23.5187 15.5228 23.4133 15.7124 23.2255V23.2255Z" stroke="#040406" stroke-width="2" stroke-linecap="round" stroke-linejoin="round"/>
</svg>
