<svg width="33" height="33" viewBox="0 0 33 33" fill="none" xmlns="http://www.w3.org/2000/svg">
<path d="M10.1987 29.5C11.3033 29.5 12.1987 28.6046 12.1987 27.5C12.1987 26.3954 11.3033 25.5 10.1987 25.5C9.09416 25.5 8.19873 26.3954 8.19873 27.5C8.19873 28.6046 9.09416 29.5 10.1987 29.5Z" fill="#040406"/>
<path d="M23.1987 29.5C24.3033 29.5 25.1987 28.6046 25.1987 27.5C25.1987 26.3954 24.3033 25.5 23.1987 25.5C22.0942 25.5 21.1987 26.3954 21.1987 27.5C21.1987 28.6046 22.0942 29.5 23.1987 29.5Z" fill="#040406"/>
<path d="M5.94957 9.5H28.3319L24.6112 21.05C24.4935 21.4692 24.2414 21.8381 23.8936 22.1001C23.5458 22.362 23.1216 22.5025 22.6862 22.5H10.7112C10.2758 22.5025 9.85166 22.362 9.50388 22.1001C9.15611 21.8381 8.90397 21.4692 8.78623 21.05L4.26123 5.225C4.20143 5.01594 4.07513 4.83207 3.90144 4.70125C3.72776 4.57042 3.51617 4.49977 3.29873 4.5H1.19873" stroke="#040406" stroke-width="2" stroke-linecap="square" stroke-linejoin="round"/>
</svg>
