<svg width="29" height="25" viewBox="0 0 29 25" fill="none" xmlns="http://www.w3.org/2000/svg">
<path d="M15.3977 22.9875L25.5227 12.8625C28.0102 10.3625 28.3727 6.27499 26.0227 3.66249C25.4334 3.00413 24.716 2.47284 23.9144 2.10109C23.1127 1.72935 22.2437 1.52494 21.3605 1.50038C20.4772 1.47581 19.5982 1.63159 18.7771 1.9582C17.9561 2.28482 17.2103 2.7754 16.5852 3.39999L14.6852 5.31249L13.0477 3.66249C10.5477 1.17499 6.46023 0.812489 3.84773 3.16249C3.18937 3.75185 2.65808 4.46925 2.28634 5.27086C1.91459 6.07248 1.71019 6.94147 1.68562 7.82475C1.66105 8.70803 1.81683 9.58704 2.14345 10.4081C2.47006 11.2291 2.96065 11.9749 3.58523 12.6L13.9727 22.9875C14.1623 23.1753 14.4184 23.2806 14.6852 23.2806C14.9521 23.2806 15.2081 23.1753 15.3977 22.9875V22.9875Z" stroke="#040406" stroke-width="2" stroke-linecap="round" stroke-linejoin="round"/>
</svg>
