<svg width="31" height="25" viewBox="0 0 31 25" fill="none" xmlns="http://www.w3.org/2000/svg">
<path d="M0.751953 4.81641L6.48233 5.40553L7.34661 9.52941L9.26037 18.6608H24.2618L25.9286 9.52941H11.1233" stroke="black" stroke-linecap="round" stroke-linejoin="round"/>
<path d="M14.9897 22.2725C14.9897 23.3167 14.1233 24.1802 13.0334 24.1802C11.9435 24.1802 11.0771 23.3167 11.0771 22.2725C11.0771 21.2282 11.9435 20.3647 13.0334 20.3647C14.1233 20.3647 14.9897 21.2282 14.9897 22.2725Z" stroke="black" stroke-linecap="round" stroke-linejoin="round"/>
<path d="M24.2006 22.2725C24.2006 23.3167 23.3342 24.1802 22.2443 24.1802C21.1545 24.1802 20.2881 23.3167 20.2881 22.2725C20.2881 21.2282 21.1545 20.3647 22.2443 20.3647C23.3342 20.3647 24.2006 21.2282 24.2006 22.2725Z" stroke="black" stroke-linecap="round" stroke-linejoin="round"/>
<ellipse cx="25.8643" cy="7.63501" rx="4.36231" ry="4.27613" fill="#FF8219"/>
<path d="M28.5317 8.16H26.2997V10.344H25.5437V8.16H23.3117V7.452H25.5437V5.256H26.2997V7.452H28.5317V8.16Z" fill="white"/>
</svg>
