<svg width="537" height="1657" viewBox="0 0 537 1657" fill="none" xmlns="http://www.w3.org/2000/svg">
<path d="M489.309 20.1212L489.954 20.503L490.718 19.212L490.072 18.8301L489.309 20.1212ZM11.1903 151.976L11.3065 151.235L10.1725 151.057L10.4651 152.167L11.1903 151.976ZM11.1903 421.976L10.552 421.582L11.1903 421.976ZM256.19 447.476L255.526 447.824L256.19 447.476ZM24.1904 1164.48L23.486 1164.22L24.1904 1164.48ZM24.1904 1521.98L23.462 1522.15L23.6044 1522.73L24.202 1522.73L24.1904 1521.98ZM129.69 1539.48L130.25 1538.98L129.69 1539.48ZM252.69 1655.98L252.69 1656.73L252.69 1655.98ZM477.863 1478.71L478.593 1478.53L478.248 1477.07L477.518 1477.25L477.863 1478.71ZM470.32 1479.22C469.925 1479.34 469.704 1479.76 469.828 1480.15C469.951 1480.55 470.372 1480.77 470.767 1480.65L470.32 1479.22ZM457.093 1485.97C457.468 1485.79 457.63 1485.35 457.454 1484.97C457.278 1484.6 456.832 1484.43 456.456 1484.61L457.093 1485.97ZM443.407 1491.74C443.056 1491.96 442.95 1492.43 443.17 1492.78C443.39 1493.13 443.852 1493.24 444.203 1493.02L443.407 1491.74ZM432.175 1501.47C432.502 1501.21 432.56 1500.74 432.306 1500.42C432.051 1500.09 431.58 1500.03 431.253 1500.29L432.175 1501.47ZM419.943 1509.91C419.639 1510.19 419.619 1510.67 419.9 1510.97C420.181 1511.28 420.656 1511.29 420.96 1511.01L419.943 1509.91ZM410.463 1521.36C410.749 1521.07 410.737 1520.59 410.438 1520.3C410.138 1520.02 409.663 1520.03 409.377 1520.33L410.463 1521.36ZM399.418 1531.31C399.147 1531.63 399.18 1532.1 399.494 1532.37C399.807 1532.64 400.28 1532.61 400.551 1532.29L399.418 1531.31ZM391.081 1543.63C391.341 1543.31 391.292 1542.83 390.97 1542.57C390.648 1542.31 390.175 1542.36 389.915 1542.69L391.081 1543.63ZM380.729 1554.3C380.475 1554.63 380.535 1555.1 380.862 1555.35C381.189 1555.61 381.661 1555.55 381.914 1555.22L380.729 1554.3ZM372.913 1566.95C373.164 1566.62 373.1 1566.15 372.771 1565.9C372.441 1565.65 371.97 1565.71 371.719 1566.04L372.913 1566.95ZM362.745 1577.81C362.493 1578.13 362.555 1578.61 362.884 1578.86C363.212 1579.11 363.683 1579.05 363.935 1578.72L362.745 1577.81ZM354.848 1590.4C355.105 1590.08 355.051 1589.61 354.726 1589.35C354.401 1589.09 353.93 1589.15 353.672 1589.47L354.848 1590.4ZM344.341 1600.93C344.075 1601.25 344.116 1601.72 344.433 1601.99C344.75 1602.26 345.223 1602.21 345.489 1601.9L344.341 1600.93ZM335.72 1613.03C336.001 1612.72 335.981 1612.25 335.676 1611.97C335.372 1611.69 334.897 1611.71 334.617 1612.01L335.72 1613.03ZM324.29 1622.56C323.99 1622.84 323.979 1623.32 324.265 1623.62C324.551 1623.92 325.026 1623.93 325.325 1623.64L324.29 1622.56ZM314.161 1633.43C314.485 1633.17 314.538 1632.7 314.279 1632.38C314.021 1632.05 313.549 1632 313.225 1632.26L314.161 1633.43ZM301.261 1640.78C300.91 1641 300.804 1641.46 301.023 1641.81C301.243 1642.16 301.706 1642.27 302.057 1642.05L301.261 1640.78ZM288.915 1649.05C289.294 1648.89 289.466 1648.44 289.298 1648.06C289.131 1647.68 288.688 1647.51 288.309 1647.68L288.915 1649.05ZM274.486 1652.5C274.084 1652.6 273.843 1653.01 273.946 1653.41C274.05 1653.81 274.458 1654.05 274.86 1653.95L274.486 1652.5ZM260.167 1656.42C260.58 1656.39 260.887 1656.03 260.853 1655.61C260.819 1655.2 260.457 1654.89 260.044 1654.93L260.167 1656.42ZM245.058 1655.05C244.644 1655.03 244.293 1655.35 244.273 1655.76C244.253 1656.17 244.573 1656.53 244.986 1656.55L245.058 1655.05ZM229.703 1654.98C230.112 1655.04 230.498 1654.77 230.564 1654.36C230.631 1653.95 230.354 1653.56 229.945 1653.5L229.703 1654.98ZM215.211 1650.04C214.815 1649.91 214.394 1650.13 214.27 1650.53C214.146 1650.92 214.365 1651.34 214.76 1651.47L215.211 1650.04ZM200.541 1645.63C200.909 1645.82 201.361 1645.68 201.552 1645.31C201.743 1644.94 201.599 1644.49 201.231 1644.3L200.541 1645.63ZM188.529 1636.11C188.204 1635.86 187.732 1635.91 187.476 1636.24C187.219 1636.56 187.275 1637.03 187.6 1637.29L188.529 1636.11ZM176.452 1626.69C176.726 1627.01 177.2 1627.04 177.511 1626.76C177.822 1626.49 177.851 1626.01 177.578 1625.7L176.452 1626.69ZM168.479 1613.6C168.254 1613.25 167.79 1613.15 167.442 1613.38C167.094 1613.6 166.994 1614.06 167.219 1614.41L168.479 1613.6ZM159.631 1601.08C159.818 1601.45 160.269 1601.59 160.639 1601.41C161.008 1601.22 161.156 1600.77 160.97 1600.4L159.631 1601.08ZM154.561 1586.58C154.396 1586.2 153.955 1586.03 153.575 1586.19C153.195 1586.36 153.02 1586.8 153.184 1587.18L154.561 1586.58ZM147.262 1573.09C147.422 1573.47 147.861 1573.65 148.243 1573.49C148.625 1573.33 148.805 1572.89 148.646 1572.51L147.262 1573.09ZM142.473 1558.5C142.294 1558.13 141.847 1557.97 141.473 1558.15C141.099 1558.33 140.941 1558.78 141.12 1559.15L142.473 1558.5ZM133.73 1545.93C133.962 1546.27 134.428 1546.36 134.771 1546.13C135.114 1545.9 135.204 1545.43 134.972 1545.09L133.73 1545.93ZM125.18 1534.14C124.859 1533.87 124.386 1533.92 124.125 1534.24C123.863 1534.57 123.911 1535.04 124.233 1535.3L125.18 1534.14ZM112.623 1528.32C113.003 1528.49 113.445 1528.32 113.611 1527.94C113.777 1527.56 113.604 1527.11 113.225 1526.95L112.623 1528.32ZM99.9815 1522.68C99.5776 1522.59 99.1757 1522.84 99.084 1523.25C98.9922 1523.65 99.2452 1524.05 99.6492 1524.15L99.9815 1522.68ZM86.1249 1522.01C86.5371 1522.05 86.9046 1521.75 86.9458 1521.33C86.987 1520.92 86.6862 1520.55 86.2741 1520.51L86.1249 1522.01ZM72.4452 1519.73C72.031 1519.72 71.6886 1520.05 71.6803 1520.46C71.6721 1520.88 72.0011 1521.22 72.4152 1521.23L72.4452 1519.73ZM58.6598 1521.31C59.0738 1521.3 59.4 1520.96 59.3884 1520.54C59.3768 1520.13 59.0317 1519.8 58.6176 1519.81L58.6598 1521.31ZM44.8176 1520.38C44.4038 1520.4 44.085 1520.75 44.1053 1521.17C44.1257 1521.58 44.4776 1521.9 44.8913 1521.88L44.8176 1520.38ZM31.1054 1522.53C31.5193 1522.51 31.8418 1522.16 31.8257 1521.75C31.8097 1521.34 31.4611 1521.01 31.0472 1521.03L31.1054 1522.53ZM23.1829 1514.49C23.0901 1514.08 22.6875 1513.83 22.2839 1513.92C21.8802 1514.02 21.6283 1514.42 21.7211 1514.82L23.1829 1514.49ZM18.5174 1500.08C18.6008 1500.49 18.9973 1500.75 19.4031 1500.66C19.8088 1500.58 20.0701 1500.18 19.9867 1499.78L18.5174 1500.08ZM17.1086 1485.03C17.0331 1484.63 16.6418 1484.36 16.2345 1484.43C15.8272 1484.51 15.5583 1484.9 15.6338 1485.31L17.1086 1485.03ZM13.012 1470.43C13.0804 1470.84 13.467 1471.12 13.8755 1471.05C14.284 1470.98 14.5598 1470.59 14.4914 1470.18L13.012 1470.43ZM12.1286 1455.32C12.0669 1454.91 11.6848 1454.63 11.2752 1454.69C10.8656 1454.75 10.5836 1455.13 10.6453 1455.54L12.1286 1455.32ZM8.51351 1440.58C8.56872 1440.99 8.94626 1441.28 9.35678 1441.23C9.7673 1441.17 10.0553 1440.79 10.0001 1440.38L8.51351 1440.58ZM8.11172 1425.46C8.06291 1425.05 7.6899 1424.76 7.27857 1424.8C6.86724 1424.85 6.57336 1425.23 6.62217 1425.64L8.11172 1425.46ZM4.96072 1410.63C5.00307 1411.05 5.37143 1411.34 5.78348 1411.3C6.19552 1411.26 6.49521 1410.89 6.45286 1410.48L4.96072 1410.63ZM5.03014 1395.47C4.99435 1395.06 4.63081 1394.75 4.21815 1394.79C3.80548 1394.82 3.49996 1395.18 3.53574 1395.6L5.03014 1395.47ZM2.35582 1380.57C2.38486 1380.99 2.74336 1381.3 3.15655 1381.27C3.56974 1381.24 3.88117 1380.88 3.85214 1380.47L2.35582 1380.57ZM2.92308 1365.44C2.90105 1365.02 2.54789 1364.7 2.13426 1364.73C1.72063 1364.75 1.40318 1365.1 1.4252 1365.52L2.92308 1365.44ZM0.755285 1350.44C0.769974 1350.85 1.11746 1351.18 1.53141 1351.16C1.94536 1351.15 2.26903 1350.8 2.25434 1350.38L0.755285 1350.44ZM1.85923 1335.32C1.85226 1334.91 1.51088 1334.58 1.09672 1334.59C0.682566 1334.59 0.352473 1334.93 0.359439 1335.35L1.85923 1335.32ZM0.253197 1320.26C0.251982 1320.68 0.586782 1321.01 1.00099 1321.01C1.41521 1321.01 1.75198 1320.68 1.75319 1320.27L0.253197 1320.26ZM1.95407 1305.21C1.964 1304.79 1.63637 1304.45 1.22227 1304.44C0.808179 1304.43 0.464436 1304.76 0.454503 1305.17L1.95407 1305.21ZM0.984674 1290.09C0.965395 1290.5 1.28519 1290.85 1.69895 1290.87C2.11272 1290.89 2.46377 1290.57 2.48305 1290.16L0.984674 1290.09ZM3.36451 1275.13C3.39386 1274.72 3.08271 1274.36 2.66953 1274.33C2.25636 1274.3 1.89763 1274.61 1.86828 1275.02L3.36451 1275.13ZM3.13349 1259.98C3.09324 1260.4 3.39481 1260.76 3.80706 1260.8C4.21931 1260.84 4.58614 1260.54 4.62639 1260.13L3.13349 1259.98ZM6.30182 1245.17C6.35395 1244.76 6.06309 1244.39 5.65217 1244.33C5.24125 1244.28 4.86588 1244.57 4.81375 1244.98L6.30182 1245.17ZM6.948 1230.03C6.88288 1230.44 7.1617 1230.82 7.57076 1230.89C7.97982 1230.95 8.36422 1230.67 8.42934 1230.27L6.948 1230.03ZM11.0508 1215.45C11.1302 1215.04 10.865 1214.64 10.4585 1214.57C10.052 1214.49 9.65805 1214.75 9.57865 1215.16L11.0508 1215.45ZM12.7548 1200.4C12.6597 1200.8 12.9094 1201.21 13.3125 1201.3C13.7156 1201.4 14.1196 1201.15 14.2147 1200.74L12.7548 1200.4ZM17.9782 1186.19C18.0908 1185.79 17.8589 1185.38 17.4602 1185.26C17.0616 1185.15 16.6472 1185.38 16.5347 1185.78L17.9782 1186.19ZM20.992 1171.33C20.8601 1171.72 21.0715 1172.15 21.4641 1172.28C21.8568 1172.41 22.282 1172.2 22.4139 1171.81L20.992 1171.33ZM27.6119 1157.59C27.764 1157.2 27.5749 1156.76 27.1896 1156.61C26.8044 1156.46 26.3687 1156.65 26.2166 1157.04L27.6119 1157.59ZM32.1928 1142.97C32.0208 1143.35 32.1869 1143.79 32.5637 1143.97C32.9406 1144.14 33.3855 1143.97 33.5574 1143.59L32.1928 1142.97ZM40.2382 1129.94C40.4304 1129.58 40.2888 1129.12 39.9219 1128.93C39.555 1128.74 39.1017 1128.88 38.9095 1129.25L40.2382 1129.94ZM46.3752 1115.92C46.1627 1116.27 46.2786 1116.73 46.6342 1116.95C46.9897 1117.16 47.4502 1117.04 47.6627 1116.69L46.3752 1115.92ZM55.831 1103.87C56.0636 1103.53 55.9744 1103.06 55.6316 1102.83C55.2889 1102.6 54.8225 1102.69 54.5899 1103.03L55.831 1103.87ZM63.543 1090.63C63.2909 1090.95 63.353 1091.43 63.6817 1091.68C64.0104 1091.93 64.4812 1091.87 64.7333 1091.54L63.543 1090.63ZM74.3308 1079.75C74.6014 1079.43 74.5666 1078.96 74.253 1078.69C73.9394 1078.42 73.4658 1078.45 73.1952 1078.77L74.3308 1079.75ZM83.5079 1067.48C83.2199 1067.78 83.2278 1068.26 83.5256 1068.54C83.8233 1068.83 84.2982 1068.82 84.5861 1068.53L83.5079 1067.48ZM95.4538 1057.89C95.7576 1057.61 95.7758 1057.14 95.4943 1056.83C95.2128 1056.53 94.7383 1056.51 94.4344 1056.79L95.4538 1057.89ZM105.923 1046.7C105.604 1046.97 105.561 1047.44 105.826 1047.76C106.091 1048.08 106.564 1048.12 106.883 1047.86L105.923 1046.7ZM118.81 1038.42C119.141 1038.17 119.208 1037.7 118.959 1037.37C118.71 1037.04 118.24 1036.97 117.909 1037.22L118.81 1038.42ZM130.334 1028.34C129.992 1028.57 129.903 1029.04 130.136 1029.38C130.369 1029.72 130.836 1029.81 131.178 1029.58L130.334 1028.34ZM143.938 1021.3C144.29 1021.08 144.399 1020.62 144.181 1020.26C143.963 1019.91 143.501 1019.8 143.149 1020.02L143.938 1021.3ZM156.301 1012.25C155.94 1012.45 155.813 1012.91 156.017 1013.27C156.22 1013.63 156.678 1013.76 157.038 1013.56L156.301 1012.25ZM170.434 1006.33C170.802 1006.14 170.946 1005.68 170.756 1005.32C170.566 1004.95 170.114 1004.8 169.745 1004.99L170.434 1006.33ZM183.439 998.22C183.065 998.398 182.905 998.845 183.083 999.219C183.26 999.594 183.708 999.753 184.082 999.576L183.439 998.22ZM197.946 993.27C198.325 993.105 198.499 992.663 198.333 992.283C198.167 991.903 197.725 991.73 197.346 991.896L197.946 993.27ZM211.431 985.986C211.047 986.141 210.861 986.578 211.016 986.962C211.171 987.346 211.608 987.532 211.993 987.377L211.431 985.986ZM226.194 981.862C226.582 981.717 226.779 981.285 226.634 980.897C226.489 980.509 226.057 980.312 225.669 980.457L226.194 981.862ZM240.032 975.278C239.641 975.414 239.434 975.841 239.57 976.233C239.706 976.624 240.134 976.831 240.525 976.695L240.032 975.278ZM254.964 971.845C255.358 971.717 255.574 971.294 255.446 970.9C255.318 970.506 254.895 970.29 254.501 970.418L254.964 971.845ZM269.063 965.846C268.667 965.967 268.443 966.386 268.564 966.782C268.684 967.178 269.103 967.402 269.499 967.282L269.063 965.846ZM284.117 962.978C284.515 962.864 284.746 962.449 284.632 962.051C284.518 961.652 284.103 961.422 283.705 961.535L284.117 962.978ZM298.412 957.461C298.012 957.568 297.775 957.98 297.882 958.38C297.99 958.78 298.402 959.017 298.802 958.909L298.412 957.461ZM313.54 955.053C313.941 954.951 314.184 954.543 314.082 954.141C313.98 953.74 313.571 953.497 313.17 953.599L313.54 955.053ZM327.975 949.928C327.572 950.026 327.325 950.431 327.422 950.834C327.519 951.236 327.924 951.484 328.327 951.386L327.975 949.928ZM343.156 947.889C343.56 947.796 343.811 947.393 343.718 946.99C343.625 946.586 343.223 946.334 342.819 946.427L343.156 947.889ZM357.698 943.077C357.294 943.166 357.038 943.566 357.127 943.97C357.216 944.375 357.616 944.631 358.021 944.541L357.698 943.077ZM372.917 941.326C373.322 941.241 373.581 940.843 373.496 940.437C373.41 940.032 373.012 939.773 372.607 939.859L372.917 941.326ZM387.541 936.757C387.135 936.84 386.873 937.236 386.956 937.642C387.039 938.048 387.435 938.31 387.841 938.227L387.541 936.757ZM402.612 935.039C403.013 934.935 403.253 934.526 403.149 934.125C403.045 933.724 402.636 933.483 402.235 933.587L402.612 935.039ZM416.118 929.132C415.731 929.281 415.539 929.714 415.687 930.101C415.836 930.488 416.27 930.68 416.657 930.532L416.118 929.132ZM430.109 924.461C430.476 924.269 430.619 923.816 430.428 923.449C430.236 923.082 429.783 922.939 429.416 923.13L430.109 924.461ZM441.977 915.68C441.633 915.91 441.54 916.376 441.77 916.72C442.001 917.065 442.467 917.157 442.811 916.927L441.977 915.68ZM454.648 908.084C454.967 907.82 455.011 907.347 454.747 907.028C454.482 906.709 454.009 906.665 453.69 906.929L454.648 908.084ZM464.484 897.064C464.192 897.358 464.193 897.832 464.486 898.125C464.78 898.417 465.254 898.416 465.547 898.123L464.484 897.064ZM475.492 887.231C475.758 886.913 475.717 886.44 475.4 886.174C475.082 885.908 474.609 885.95 474.343 886.267L475.492 887.231ZM483.292 874.695C483.051 875.032 483.129 875.501 483.466 875.741C483.803 875.982 484.272 875.904 484.512 875.567L483.292 874.695ZM492.65 863.271C492.866 862.918 492.756 862.456 492.403 862.239C492.05 862.023 491.588 862.133 491.371 862.486L492.65 863.271ZM498.629 849.756C498.435 850.122 498.575 850.576 498.941 850.77C499.307 850.964 499.761 850.824 499.955 850.458L498.629 849.756ZM506.478 837.227C506.65 836.851 506.485 836.405 506.108 836.233C505.732 836.06 505.287 836.225 505.114 836.602L506.478 837.227ZM510.872 823.105C510.719 823.49 510.908 823.926 511.293 824.079C511.678 824.231 512.114 824.043 512.266 823.658L510.872 823.105ZM517.359 809.832C517.493 809.44 517.283 809.014 516.891 808.88C516.499 808.746 516.073 808.955 515.939 809.347L517.359 809.832ZM520.36 795.368C520.244 795.766 520.472 796.182 520.87 796.298C521.267 796.414 521.684 796.186 521.8 795.788L520.36 795.368ZM525.625 781.556C525.724 781.154 525.478 780.748 525.076 780.649C524.673 780.55 524.267 780.795 524.168 781.197L525.625 781.556ZM527.386 766.878C527.304 767.283 527.566 767.68 527.972 767.762C528.378 767.845 528.774 767.583 528.856 767.177L527.386 766.878ZM531.511 752.688C531.578 752.279 531.301 751.894 530.892 751.827C530.483 751.76 530.098 752.038 530.031 752.446L531.511 752.688ZM532.112 737.938C532.061 738.349 532.353 738.724 532.764 738.775C533.175 738.825 533.55 738.534 533.601 738.122L532.112 737.938ZM535.133 723.456C535.168 723.043 534.862 722.68 534.45 722.645C534.037 722.61 533.674 722.916 533.639 723.329L535.133 723.456ZM534.601 708.67C534.582 709.084 534.902 709.434 535.315 709.454C535.729 709.473 536.08 709.153 536.099 708.739L534.601 708.67ZM536.482 693.998C536.485 693.584 536.151 693.246 535.737 693.244C535.322 693.241 534.985 693.575 534.982 693.989L536.482 693.998ZM534.757 679.315C534.772 679.729 535.12 680.052 535.534 680.037C535.948 680.021 536.271 679.673 536.256 679.259L534.757 679.315ZM535.376 664.549C535.342 664.136 534.979 663.829 534.567 663.864C534.154 663.898 533.847 664.261 533.882 664.674L535.376 664.549ZM532.292 650.099C532.348 650.509 532.726 650.796 533.136 650.741C533.547 650.685 533.834 650.307 533.778 649.896L532.292 650.099ZM531.362 635.344C531.282 634.938 530.887 634.674 530.481 634.755C530.074 634.835 529.81 635.23 529.891 635.636L531.362 635.344ZM526.531 621.366C526.641 621.765 527.054 622 527.453 621.889C527.853 621.779 528.087 621.366 527.976 620.967L526.531 621.366ZM523.391 606.91C523.243 606.523 522.809 606.33 522.422 606.478C522.035 606.626 521.842 607.06 521.99 607.447L523.391 606.91ZM515.94 594.206C516.139 594.569 516.595 594.703 516.958 594.504C517.322 594.306 517.455 593.85 517.257 593.486L515.94 594.206ZM508.946 581.218C508.676 580.904 508.203 580.866 507.888 581.136C507.573 581.405 507.536 581.878 507.805 582.193L508.946 581.218ZM496.893 572.858C497.252 573.065 497.71 572.942 497.918 572.583C498.125 572.225 498.002 571.766 497.643 571.559L496.893 572.858ZM483.403 567.269C482.99 567.248 482.637 567.565 482.615 567.979C482.594 568.393 482.912 568.745 483.325 568.767L483.403 567.269ZM469.278 571.082C469.667 570.939 469.867 570.509 469.724 570.12C469.582 569.731 469.151 569.531 468.762 569.673L469.278 571.082ZM454.877 576.412C454.506 576.596 454.354 577.046 454.537 577.417C454.721 577.788 455.171 577.94 455.542 577.757L454.877 576.412ZM441.252 584.129C441.637 583.977 441.826 583.541 441.674 583.156C441.522 582.771 441.086 582.582 440.701 582.734L441.252 584.129ZM426.055 587.682C425.656 587.793 425.422 588.206 425.533 588.605C425.644 589.004 426.057 589.238 426.456 589.127L426.055 587.682ZM411.085 592.344C411.495 592.288 411.782 591.909 411.726 591.499C411.67 591.088 411.291 590.802 410.881 590.858L411.085 592.344ZM395.459 591.739C395.045 591.727 394.7 592.054 394.689 592.468C394.678 592.882 395.004 593.227 395.418 593.238L395.459 591.739ZM379.826 591.374C380.23 591.462 380.63 591.204 380.717 590.799C380.804 590.395 380.547 589.995 380.142 589.908L379.826 591.374ZM365.434 585.246C365.053 585.084 364.613 585.263 364.452 585.645C364.291 586.027 364.469 586.466 364.851 586.628L365.434 585.246ZM350.967 579.317C351.317 579.539 351.78 579.435 352.002 579.085C352.224 578.735 352.12 578.272 351.771 578.05L350.967 579.317ZM339.315 568.866C338.998 568.599 338.525 568.64 338.259 568.956C337.992 569.273 338.032 569.746 338.349 570.013L339.315 568.866ZM326.936 559.288C327.224 559.587 327.698 559.595 327.997 559.308C328.295 559.021 328.304 558.546 328.016 558.247L326.936 559.288ZM317.71 546.629C317.447 546.309 316.974 546.263 316.654 546.526C316.335 546.789 316.288 547.262 316.551 547.582L317.71 546.629ZM306.993 535.192C307.236 535.527 307.705 535.601 308.04 535.357C308.375 535.113 308.449 534.644 308.206 534.309L306.993 535.192ZM299.349 521.515C299.12 521.17 298.655 521.075 298.309 521.304C297.964 521.532 297.869 521.997 298.097 522.343L299.349 521.515ZM289.72 509.18C289.937 509.533 290.399 509.643 290.752 509.427C291.105 509.21 291.215 508.748 290.998 508.395L289.72 509.18ZM283.004 494.991C282.796 494.633 282.337 494.511 281.979 494.719C281.621 494.927 281.499 495.386 281.707 495.744L283.004 494.991ZM274.017 482.198C274.218 482.56 274.675 482.69 275.037 482.489C275.399 482.287 275.529 481.83 275.327 481.469L274.017 482.198ZM267.833 467.78C267.636 467.416 267.181 467.28 266.817 467.476C266.452 467.673 266.316 468.128 266.513 468.492L267.833 467.78ZM259.174 454.745C259.367 455.111 259.821 455.251 260.187 455.057C260.553 454.863 260.693 454.409 260.5 454.043L259.174 454.745ZM252.753 440.589C252.507 440.256 252.037 440.186 251.704 440.433C251.371 440.679 251.302 441.149 251.548 441.482L252.753 440.589ZM240.962 431.037C241.297 431.281 241.766 431.208 242.01 430.873C242.254 430.539 242.181 430.07 241.846 429.825L240.962 431.037ZM228.452 422.448C228.068 422.291 227.63 422.474 227.473 422.857C227.316 423.241 227.5 423.679 227.883 423.836L228.452 422.448ZM213.492 419.413C213.896 419.503 214.297 419.247 214.386 418.843C214.476 418.439 214.221 418.038 213.816 417.949L213.492 419.413ZM198.778 415.59C198.366 415.549 197.998 415.849 197.957 416.261C197.915 416.674 198.216 417.041 198.628 417.083L198.778 415.59ZM183.512 416.242C183.926 416.248 184.267 415.918 184.273 415.504C184.28 415.089 183.949 414.748 183.535 414.742L183.512 416.242ZM168.345 414.994C167.931 415.013 167.611 415.364 167.63 415.778C167.649 416.191 168 416.511 168.414 416.492L168.345 414.994ZM153.301 417.554C153.713 417.516 154.017 417.15 153.978 416.738C153.94 416.326 153.575 416.022 153.163 416.06L153.301 417.554ZM138.048 417.739C137.637 417.792 137.347 418.167 137.399 418.578C137.452 418.989 137.828 419.279 138.239 419.227L138.048 417.739ZM123.232 421.362C123.642 421.298 123.922 420.915 123.858 420.506C123.795 420.096 123.412 419.816 123.002 419.88L123.232 421.362ZM108.015 422.362C107.607 422.434 107.334 422.822 107.406 423.23C107.477 423.638 107.866 423.911 108.274 423.84L108.015 422.362ZM93.3678 426.554C93.7749 426.477 94.0429 426.085 93.9664 425.678C93.8898 425.271 93.4978 425.003 93.0907 425.08L93.3678 426.554ZM78.1444 427.94C77.7377 428.019 77.4718 428.412 77.5505 428.819C77.6292 429.226 78.0226 429.492 78.4293 429.413L78.1444 427.94ZM63.5662 432.272C63.9731 432.195 64.2406 431.802 64.1636 431.395C64.0866 430.988 63.6942 430.721 63.2872 430.798L63.5662 432.272ZM48.3065 433.509C47.8981 433.579 47.623 433.966 47.6922 434.374C47.7613 434.782 48.1484 435.058 48.5568 434.988L48.3065 433.509ZM33.491 437.196C33.9025 437.149 34.1977 436.777 34.1504 436.365C34.1031 435.954 33.7312 435.658 33.3196 435.706L33.491 437.196ZM18.3836 436.376C17.9705 436.346 17.6115 436.657 17.5817 437.07C17.552 437.483 17.8628 437.842 18.276 437.872L18.3836 436.376ZM7.40877 428.905C7.33832 429.313 7.6121 429.701 8.02028 429.772C8.42845 429.842 8.81646 429.568 8.88692 429.16L7.40877 428.905ZM15.2947 415.571C15.4573 415.19 15.2803 414.75 14.8993 414.587C14.5183 414.424 14.0777 414.602 13.9151 414.982L15.2947 415.571ZM18.5887 400.62C18.4879 401.022 18.7319 401.429 19.1336 401.53C19.5354 401.631 19.9428 401.387 20.0436 400.985L18.5887 400.62ZM23.0846 386.047C23.1517 385.639 22.8748 385.253 22.4661 385.186C22.0573 385.118 21.6716 385.395 21.6044 385.804L23.0846 386.047ZM23.6316 370.816C23.5864 371.228 23.8835 371.598 24.2952 371.644C24.707 371.689 25.0774 371.392 25.1226 370.98L23.6316 370.816ZM26.4772 355.851C26.5065 355.438 26.1954 355.079 25.7823 355.049C25.3691 355.02 25.0103 355.331 24.9809 355.744L26.4772 355.851ZM25.8231 340.594C25.806 341.008 26.1277 341.357 26.5416 341.374C26.9554 341.391 27.3048 341.069 27.3218 340.656L25.8231 340.594ZM27.7568 325.461C27.7638 325.046 27.4337 324.705 27.0195 324.698C26.6054 324.691 26.264 325.021 26.2571 325.435L27.7568 325.461ZM26.3501 310.267C26.3518 310.681 26.689 311.016 27.1032 311.014C27.5174 311.012 27.8518 310.675 27.8501 310.261L26.3501 310.267ZM27.646 295.063C27.6367 294.649 27.2934 294.321 26.8793 294.33C26.4652 294.34 26.1371 294.683 26.1464 295.097L27.646 295.063ZM25.675 279.931C25.6913 280.345 26.0401 280.667 26.454 280.651C26.8679 280.634 27.1901 280.286 27.1738 279.872L25.675 279.931ZM26.4521 264.693C26.4291 264.279 26.0752 263.962 25.6616 263.985C25.248 264.008 24.9314 264.362 24.9544 264.776L26.4521 264.693ZM23.9938 249.633C24.0233 250.047 24.3821 250.358 24.7953 250.328C25.2084 250.299 25.5195 249.94 25.49 249.527L23.9938 249.633ZM24.2883 234.376C24.2522 233.963 23.8885 233.658 23.4758 233.694C23.0632 233.73 22.7579 234.094 22.794 234.506L24.2883 234.376ZM21.3461 219.4C21.3892 219.812 21.7581 220.111 22.1701 220.068C22.582 220.025 22.8811 219.656 22.838 219.244L21.3461 219.4ZM21.121 204.165C21.0701 203.753 20.6957 203.461 20.2846 203.512C19.8735 203.563 19.5815 203.938 19.6323 204.349L21.121 204.165ZM17.6028 189.289C17.6629 189.699 18.0439 189.983 18.4537 189.923C18.8635 189.862 19.147 189.481 19.0869 189.072L17.6028 189.289ZM16.6663 174.049C16.594 173.642 16.2048 173.369 15.7969 173.442C15.3891 173.514 15.1171 173.903 15.1894 174.311L16.6663 174.049ZM12.237 159.463C12.3278 159.868 12.7291 160.121 13.1332 160.031C13.5374 159.94 13.7913 159.538 13.7004 159.134L12.237 159.463ZM18.466 153.617C18.8785 153.655 19.2433 153.351 19.2809 152.938C19.3184 152.526 19.0144 152.161 18.6019 152.123L18.466 153.617ZM33.3714 152.767C32.9572 152.766 32.6207 153.101 32.6198 153.515C32.619 153.929 32.954 154.266 33.3683 154.267L33.3714 152.767ZM48.2385 153.79C48.6519 153.764 48.9656 153.407 48.9391 152.994C48.9127 152.581 48.5562 152.267 48.1428 152.293L48.2385 153.79ZM62.8913 150.926C62.4801 150.976 62.1868 151.349 62.2363 151.761C62.2858 152.172 62.6593 152.465 63.0706 152.416L62.8913 150.926ZM77.8053 150.259C78.2135 150.189 78.4876 149.802 78.4175 149.393C78.3474 148.985 77.9596 148.711 77.5514 148.781L77.8053 150.259ZM92.0828 145.93C91.6783 146.019 91.4227 146.419 91.5118 146.824C91.601 147.228 92.0012 147.484 92.4057 147.395L92.0828 145.93ZM106.857 143.868C107.257 143.761 107.495 143.35 107.388 142.95C107.281 142.55 106.869 142.312 106.469 142.419L106.857 143.868ZM120.702 138.281C120.306 138.405 120.087 138.826 120.211 139.221C120.335 139.617 120.756 139.836 121.151 139.712L120.702 138.281ZM135.265 134.954C135.655 134.814 135.857 134.384 135.717 133.994C135.576 133.605 135.146 133.402 134.757 133.543L135.265 134.954ZM148.571 128.245C148.188 128.401 148.003 128.839 148.159 129.223C148.315 129.606 148.753 129.791 149.137 129.635L148.571 128.245ZM162.827 123.745C163.204 123.573 163.371 123.129 163.2 122.752C163.029 122.375 162.584 122.208 162.207 122.379L162.827 123.745ZM175.555 116.004C175.185 116.19 175.035 116.64 175.221 117.011C175.406 117.381 175.857 117.53 176.227 117.345L175.555 116.004ZM189.412 110.412C189.775 110.212 189.907 109.756 189.708 109.393C189.508 109.03 189.052 108.898 188.689 109.098L189.412 110.412ZM201.522 101.718C201.167 101.931 201.052 102.391 201.265 102.747C201.478 103.102 201.939 103.217 202.294 103.004L201.522 101.718ZM214.902 95.1173C215.249 94.8912 215.347 94.4266 215.121 94.0795C214.895 93.7324 214.43 93.6343 214.083 93.8604L214.902 95.1173ZM226.37 85.5375C226.031 85.7759 225.95 86.2438 226.188 86.5825C226.427 86.9212 226.894 87.0025 227.233 86.7641L226.37 85.5375ZM239.235 77.9937C239.565 77.7435 239.63 77.2731 239.38 76.943C239.13 76.6129 238.659 76.5481 238.329 76.7984L239.235 77.9937ZM249.974 67.65C249.652 67.9114 249.604 68.3838 249.865 68.7051C250.127 69.0264 250.599 69.0749 250.92 68.8134L249.974 67.65ZM262.781 59.0254C263.104 58.7661 263.156 58.294 262.897 57.971C262.637 57.648 262.165 57.5963 261.842 57.8556L262.781 59.0254ZM274.365 48.2979C274.03 48.5409 273.955 49.0098 274.198 49.3452C274.441 49.6807 274.91 49.7557 275.245 49.5127L274.365 48.2979ZM288.239 40.6131C288.587 40.3884 288.687 39.9241 288.462 39.5762C288.237 39.2283 287.773 39.1284 287.425 39.3532L288.239 40.6131ZM300.919 31.1616C300.559 31.3663 300.433 31.8242 300.638 32.1842C300.842 32.5443 301.3 32.6703 301.66 32.4655L300.919 31.1616ZM315.547 25.109C315.919 24.9263 316.072 24.4769 315.89 24.1051C315.707 23.7334 315.258 23.5801 314.886 23.7628L315.547 25.109ZM329.265 17.2512C328.883 17.4099 328.701 17.8487 328.86 18.2313C329.018 18.6139 329.457 18.7955 329.84 18.6368L329.265 17.2512ZM344.556 13.1005C344.949 12.9679 345.159 12.5423 345.026 12.1499C344.894 11.7575 344.468 11.5469 344.076 11.6795L344.556 13.1005ZM359.211 7.1436C358.81 7.24842 358.571 7.65826 358.675 8.05899C358.78 8.45972 359.19 8.69959 359.591 8.59477L359.211 7.1436ZM374.901 5.17738C375.309 5.10204 375.578 4.71079 375.503 4.30348C375.427 3.89617 375.036 3.62706 374.629 3.70239L374.901 5.17738ZM390.266 1.41427C389.855 1.45861 389.557 1.82842 389.601 2.24025C389.645 2.65208 390.015 2.94999 390.427 2.90565L390.266 1.41427ZM406.089 1.83304C406.503 1.82101 406.829 1.47561 406.817 1.06157C406.805 0.647528 406.459 0.321641 406.045 0.333676L406.089 1.83304ZM421.87 0.510633C421.457 0.489137 421.104 0.807045 421.082 1.2207C421.061 1.63436 421.379 1.98712 421.792 2.00861L421.87 0.510633ZM437.42 3.47888C437.83 3.5352 438.209 3.24819 438.265 2.83783C438.321 2.42746 438.034 2.04913 437.624 1.99281L437.42 3.47888ZM453.169 4.83341C452.765 4.74048 452.362 4.99238 452.269 5.39603C452.176 5.79969 452.428 6.20225 452.832 6.29518L453.169 4.83341ZM467.923 10.5573C468.315 10.6902 468.741 10.4799 468.874 10.0876C469.007 9.69528 468.797 9.2695 468.404 9.13659L467.923 10.5573ZM483.081 15.096C482.708 14.9155 482.26 15.0714 482.079 15.4443C481.899 15.8171 482.055 16.2656 482.428 16.4461L483.081 15.096ZM477.518 1477.25C475.077 1477.82 472.679 1478.48 470.32 1479.22L470.767 1480.65C473.092 1479.92 475.456 1479.27 477.863 1478.71L477.518 1477.25ZM456.456 1484.61C451.961 1486.72 447.617 1489.11 443.407 1491.74L444.203 1493.02C448.366 1490.41 452.657 1488.05 457.093 1485.97L456.456 1484.61ZM431.253 1500.29C427.378 1503.31 423.614 1506.53 419.943 1509.91L420.96 1511.01C424.604 1507.65 428.337 1504.46 432.175 1501.47L431.253 1500.29ZM409.377 1520.33C405.991 1523.88 402.676 1527.55 399.418 1531.31L400.551 1532.29C403.797 1528.55 407.095 1524.9 410.463 1521.36L409.377 1520.33ZM389.915 1542.69C386.818 1546.51 383.761 1550.39 380.729 1554.3L381.914 1555.22C384.942 1551.32 387.992 1547.44 391.081 1543.63L389.915 1542.69ZM371.719 1566.04C368.721 1569.98 365.735 1573.91 362.745 1577.81L363.935 1578.72C366.927 1574.82 369.916 1570.89 372.913 1566.95L371.719 1566.04ZM353.672 1589.47C350.585 1593.37 347.48 1597.2 344.341 1600.93L345.489 1601.9C348.639 1598.15 351.754 1594.31 354.848 1590.4L353.672 1589.47ZM334.617 1612.01C331.233 1615.68 327.797 1619.21 324.29 1622.56L325.325 1623.64C328.859 1620.27 332.318 1616.72 335.72 1613.03L334.617 1612.01ZM313.225 1632.26C309.343 1635.36 305.362 1638.21 301.261 1640.78L302.057 1642.05C306.211 1639.45 310.239 1636.56 314.161 1633.43L313.225 1632.26ZM288.309 1647.68C283.856 1649.65 279.255 1651.27 274.486 1652.5L274.86 1653.95C279.713 1652.7 284.391 1651.05 288.915 1649.05L288.309 1647.68ZM260.044 1654.93C257.636 1655.12 255.186 1655.23 252.69 1655.23L252.69 1656.73C255.227 1656.73 257.718 1656.62 260.167 1656.42L260.044 1654.93ZM252.69 1655.23C250.073 1655.23 247.53 1655.17 245.058 1655.05L244.986 1656.55C247.483 1656.66 250.05 1656.73 252.69 1656.73L252.69 1655.23ZM229.945 1653.5C224.66 1652.64 219.762 1651.47 215.211 1650.04L214.76 1651.47C219.383 1652.92 224.352 1654.11 229.703 1654.98L229.945 1653.5ZM201.231 1644.3C196.569 1641.88 192.358 1639.13 188.529 1636.11L187.6 1637.29C191.502 1640.37 195.793 1643.17 200.541 1645.63L201.231 1644.3ZM177.578 1625.7C174.207 1621.88 171.203 1617.81 168.479 1613.6L167.219 1614.41C169.977 1618.68 173.026 1622.81 176.452 1626.69L177.578 1625.7ZM160.97 1600.4C158.659 1595.83 156.555 1591.2 154.561 1586.58L153.184 1587.18C155.185 1591.81 157.302 1596.47 159.631 1601.08L160.97 1600.4ZM148.646 1572.51C146.614 1567.66 144.597 1562.94 142.473 1558.5L141.12 1559.15C143.227 1563.55 145.232 1568.24 147.262 1573.09L148.646 1572.51ZM134.972 1545.09C133.493 1542.9 131.928 1540.86 130.25 1538.98L129.131 1539.97C130.758 1541.8 132.283 1543.79 133.73 1545.93L134.972 1545.09ZM130.25 1538.98C128.677 1537.21 126.982 1535.6 125.18 1534.14L124.233 1535.3C125.975 1536.72 127.612 1538.27 129.131 1539.97L130.25 1538.98ZM113.225 1526.95C109.066 1525.13 104.619 1523.74 99.9815 1522.68L99.6492 1524.15C104.212 1525.18 108.566 1526.55 112.623 1528.32L113.225 1526.95ZM86.2741 1520.51C81.73 1520.06 77.0953 1519.82 72.4452 1519.73L72.4152 1521.23C77.0347 1521.32 81.6286 1521.56 86.1249 1522.01L86.2741 1520.51ZM58.6176 1519.81C53.9347 1519.95 49.3079 1520.16 44.8176 1520.38L44.8913 1521.88C49.3792 1521.66 53.9933 1521.45 58.6598 1521.31L58.6176 1519.81ZM31.0472 1521.03C28.6803 1521.12 26.3862 1521.19 24.1787 1521.23L24.202 1522.73C26.4245 1522.69 28.7308 1522.62 31.1054 1522.53L31.0472 1521.03ZM24.9188 1521.8C24.3469 1519.47 23.7674 1517.03 23.1829 1514.49L21.7211 1514.82C22.3071 1517.37 22.8883 1519.82 23.462 1522.15L24.9188 1521.8ZM19.9867 1499.78C19.0245 1495.1 18.0615 1490.17 17.1086 1485.03L15.6338 1485.31C16.5883 1490.46 17.5532 1495.39 18.5174 1500.08L19.9867 1499.78ZM14.4914 1470.18C13.6859 1465.37 12.8959 1460.41 12.1286 1455.32L10.6453 1455.54C11.4138 1460.64 12.2052 1465.61 13.012 1470.43L14.4914 1470.18ZM10.0001 1440.38C9.34402 1435.5 8.71271 1430.53 8.11172 1425.46L6.62217 1425.64C7.22409 1430.71 7.85639 1435.7 8.51351 1440.58L10.0001 1440.38ZM6.45286 1410.48C5.94512 1405.54 5.46932 1400.53 5.03014 1395.47L3.53574 1395.6C3.97563 1400.67 4.45218 1405.69 4.96072 1410.63L6.45286 1410.48ZM3.85214 1380.47C3.50297 1375.5 3.1919 1370.48 2.92308 1365.44L1.4252 1365.52C1.69449 1370.57 2.00609 1375.59 2.35582 1380.57L3.85214 1380.47ZM2.25434 1350.38C2.077 1345.39 1.944 1340.36 1.85923 1335.32L0.359439 1335.35C0.444369 1340.4 0.57762 1345.43 0.755285 1350.44L2.25434 1350.38ZM1.75319 1320.27C1.76789 1315.25 1.8336 1310.23 1.95407 1305.21L0.454503 1305.17C0.333768 1310.21 0.267929 1315.24 0.253197 1320.26L1.75319 1320.27ZM2.48305 1290.16C2.71697 1285.14 3.00953 1280.13 3.36451 1275.13L1.86828 1275.02C1.51241 1280.03 1.21914 1285.06 0.984674 1290.09L2.48305 1290.16ZM4.62639 1260.13C5.1159 1255.12 5.67308 1250.13 6.30182 1245.17L4.81375 1244.98C4.18311 1249.95 3.62434 1254.96 3.13349 1259.98L4.62639 1260.13ZM8.42934 1230.27C9.22308 1225.28 10.0955 1220.34 11.0508 1215.45L9.57865 1215.16C8.61984 1220.07 7.74436 1225.03 6.948 1230.03L8.42934 1230.27ZM14.2147 1200.74C15.3755 1195.82 16.6285 1190.97 17.9782 1186.19L16.5347 1185.78C15.1787 1190.58 13.9203 1195.46 12.7548 1200.4L14.2147 1200.74ZM22.4139 1171.81C23.2137 1169.43 24.0405 1167.07 24.8947 1164.73L23.486 1164.22C22.6271 1166.57 21.796 1168.94 20.992 1171.33L22.4139 1171.81ZM24.8947 1164.73C25.7761 1162.32 26.6819 1159.94 27.6119 1157.59L26.2166 1157.04C25.282 1159.4 24.3717 1161.8 23.486 1164.22L24.8947 1164.73ZM33.5574 1143.59C35.6833 1138.94 37.9109 1134.39 40.2382 1129.94L38.9095 1129.25C36.5694 1133.72 34.3298 1138.29 32.1928 1142.97L33.5574 1143.59ZM47.6627 1116.69C50.2813 1112.31 53.0048 1108.04 55.831 1103.87L54.5899 1103.03C51.7475 1107.22 49.0085 1111.51 46.3752 1115.92L47.6627 1116.69ZM64.7333 1091.54C67.8283 1087.5 71.0282 1083.57 74.3308 1079.75L73.1952 1078.77C69.8739 1082.62 66.6558 1086.57 63.543 1090.63L64.7333 1091.54ZM84.5861 1068.53C88.1081 1064.88 91.7314 1061.34 95.4538 1057.89L94.4344 1056.79C90.6923 1060.26 87.0493 1063.82 83.5079 1067.48L84.5861 1068.53ZM106.883 1047.86C110.764 1044.62 114.741 1041.48 118.81 1038.42L117.909 1037.22C113.82 1040.3 109.824 1043.46 105.923 1046.7L106.883 1047.86ZM131.178 1029.58C135.345 1026.74 139.599 1023.98 143.938 1021.3L143.149 1020.02C138.792 1022.72 134.52 1025.49 130.334 1028.34L131.178 1029.58ZM157.038 1013.56C161.425 1011.08 165.891 1008.67 170.434 1006.33L169.745 1004.99C165.187 1007.35 160.705 1009.76 156.301 1012.25L157.038 1013.56ZM184.082 999.576C188.633 997.419 193.255 995.318 197.946 993.27L197.346 991.896C192.641 993.949 188.005 996.056 183.439 998.22L184.082 999.576ZM211.993 987.377C216.664 985.492 221.399 983.655 226.194 981.862L225.669 980.457C220.862 982.254 216.116 984.096 211.431 985.986L211.993 987.377ZM240.525 976.695C245.283 975.04 250.096 973.424 254.964 971.845L254.501 970.418C249.624 972.001 244.8 973.62 240.032 975.278L240.525 976.695ZM269.499 967.282C274.322 965.816 279.195 964.382 284.117 962.978L283.705 961.535C278.776 962.942 273.895 964.378 269.063 965.846L269.499 967.282ZM298.802 958.909C303.671 957.599 308.584 956.315 313.54 955.053L313.17 953.599C308.208 954.862 303.288 956.149 298.412 957.461L298.802 958.909ZM328.327 951.386C333.231 950.201 338.174 949.036 343.156 947.889L342.819 946.427C337.833 947.576 332.884 948.742 327.975 949.928L328.327 951.386ZM358.021 944.541C362.951 943.455 367.917 942.384 372.917 941.326L372.607 939.859C367.603 940.918 362.633 941.989 357.698 943.077L358.021 944.541ZM387.841 938.227C390.332 937.719 392.831 937.214 395.338 936.711L395.043 935.24C392.534 935.743 390.034 936.249 387.541 936.757L387.841 938.227ZM395.338 936.711C397.798 936.218 400.222 935.66 402.612 935.039L402.235 933.587C399.872 934.201 397.475 934.752 395.043 935.24L395.338 936.711ZM416.657 930.532C421.287 928.75 425.77 926.721 430.109 924.461L429.416 923.13C425.126 925.365 420.694 927.371 416.118 929.132L416.657 930.532ZM442.811 916.927C446.902 914.19 450.847 911.237 454.648 908.084L453.69 906.929C449.927 910.051 446.023 912.973 441.977 915.68L442.811 916.927ZM465.547 898.123C468.997 894.661 472.312 891.024 475.492 887.231L474.343 886.267C471.189 890.029 467.903 893.634 464.484 897.064L465.547 898.123ZM484.512 875.567C487.349 871.596 490.06 867.492 492.65 863.271L491.371 862.486C488.799 866.679 486.107 870.753 483.292 874.695L484.512 875.567ZM499.955 850.458C502.242 846.14 504.416 841.724 506.478 837.227L505.114 836.602C503.064 841.074 500.903 845.464 498.629 849.756L499.955 850.458ZM512.266 823.658C514.069 819.11 515.766 814.497 517.359 809.832L515.939 809.347C514.354 813.99 512.665 818.581 510.872 823.105L512.266 823.658ZM521.8 795.788C523.174 791.078 524.449 786.33 525.625 781.556L524.168 781.197C522.997 785.951 521.728 790.679 520.36 795.368L521.8 795.788ZM528.856 767.177C529.838 762.355 530.723 757.521 531.511 752.688L530.031 752.446C529.245 757.261 528.365 762.075 527.386 766.878L528.856 767.177ZM533.601 738.122C534.209 733.215 534.719 728.321 535.133 723.456L533.639 723.329C533.226 728.175 532.718 733.049 532.112 737.938L533.601 738.122ZM536.099 708.739C536.327 703.775 536.455 698.856 536.482 693.998L534.982 693.989C534.955 698.827 534.828 703.726 534.601 708.67L536.099 708.739ZM536.256 679.259C536.071 674.265 535.777 669.355 535.376 664.549L533.882 664.674C534.281 669.456 534.573 674.342 534.757 679.315L536.256 679.259ZM533.778 649.896C533.098 644.892 532.292 640.033 531.362 635.344L529.891 635.636C530.814 640.293 531.615 645.122 532.292 650.099L533.778 649.896ZM527.976 620.967C526.607 616.01 525.077 611.313 523.391 606.91L521.99 607.447C523.657 611.8 525.172 616.451 526.531 621.366L527.976 620.967ZM517.257 593.486C514.725 588.852 511.953 584.737 508.946 581.218L507.805 582.193C510.734 585.62 513.45 589.646 515.94 594.206L517.257 593.486ZM497.643 571.559C493.237 569.013 488.482 567.534 483.403 567.269L483.325 568.767C488.153 569.019 492.679 570.423 496.893 572.858L497.643 571.559ZM468.762 569.673C466.498 570.502 464.188 571.547 461.835 572.815L462.546 574.136C464.842 572.899 467.086 571.884 469.278 571.082L468.762 569.673ZM461.835 572.815C459.485 574.081 457.167 575.28 454.877 576.412L455.542 577.757C457.848 576.616 460.182 575.41 462.546 574.136L461.835 572.815ZM440.701 582.734C435.673 584.721 430.795 586.365 426.055 587.682L426.456 589.127C431.251 587.796 436.179 586.134 441.252 584.129L440.701 582.734ZM410.881 590.858C405.564 591.589 400.43 591.874 395.459 591.739L395.418 593.238C400.475 593.376 405.692 593.086 411.085 592.344L410.881 590.858ZM380.142 589.908C375.079 588.814 370.184 587.25 365.434 585.246L364.851 586.628C369.684 588.667 374.668 590.26 379.826 591.374L380.142 589.908ZM351.771 578.05C347.516 575.351 343.371 572.282 339.315 568.866L338.349 570.013C342.451 573.468 346.651 576.578 350.967 579.317L351.771 578.05ZM328.016 558.247C324.527 554.626 321.096 550.747 317.71 546.629L316.551 547.582C319.96 551.727 323.416 555.635 326.936 559.288L328.016 558.247ZM308.206 534.309C305.23 530.219 302.281 525.95 299.349 521.515L298.097 522.343C301.041 526.793 304.002 531.081 306.993 535.192L308.206 534.309ZM290.998 508.395C288.33 504.051 285.668 499.58 283.004 494.991L281.707 495.744C284.376 500.342 287.044 504.824 289.72 509.18L290.998 508.395ZM275.327 481.469C272.839 476.996 270.343 472.43 267.833 467.78L266.513 468.492C269.025 473.147 271.524 477.718 274.017 482.198L275.327 481.469ZM260.5 454.043C259.289 451.755 258.074 449.449 256.854 447.127L255.526 447.824C256.747 450.148 257.962 452.455 259.174 454.745L260.5 454.043ZM256.854 447.127C255.632 444.801 254.262 442.624 252.753 440.589L251.548 441.482C253.011 443.455 254.34 445.566 255.526 447.824L256.854 447.127ZM241.846 429.825C237.813 426.881 233.321 424.443 228.452 422.448L227.883 423.836C232.655 425.791 237.038 428.173 240.962 431.037L241.846 429.825ZM213.816 417.949C209.019 416.886 203.99 416.113 198.778 415.59L198.628 417.083C203.79 417.601 208.761 418.365 213.492 419.413L213.816 417.949ZM183.535 414.742C178.57 414.664 173.495 414.758 168.345 414.994L168.414 416.492C173.537 416.257 178.581 416.164 183.512 416.242L183.535 414.742ZM153.163 416.06C148.15 416.524 143.101 417.092 138.048 417.739L138.239 419.227C143.276 418.582 148.308 418.016 153.301 417.554L153.163 416.06ZM123.002 419.88C117.969 420.661 112.963 421.496 108.015 422.362L108.274 423.84C113.214 422.975 118.21 422.141 123.232 421.362L123.002 419.88ZM93.0907 425.08C87.9935 426.038 82.9983 427.001 78.1444 427.94L78.4293 429.413C83.283 428.474 88.2748 427.511 93.3678 426.554L93.0907 425.08ZM63.2872 430.798C58.027 431.793 53.0139 432.713 48.3065 433.509L48.5568 434.988C53.2777 434.189 58.3014 433.268 63.5662 432.272L63.2872 430.798ZM33.3196 435.706C27.3854 436.388 22.3444 436.661 18.3836 436.376L18.276 437.872C22.3744 438.167 27.5228 437.882 33.491 437.196L33.3196 435.706ZM8.88692 429.16C9.19906 427.352 10.1382 425.11 11.8286 422.369L10.552 421.582C8.81333 424.401 7.76698 426.83 7.40877 428.905L8.88692 429.16ZM11.8286 422.369C13.0685 420.359 14.2222 418.084 15.2947 415.571L13.9151 414.982C12.866 417.441 11.7455 419.647 10.552 421.582L11.8286 422.369ZM20.0436 400.985C21.1969 396.39 22.2073 391.389 23.0846 386.047L21.6044 385.804C20.7325 391.113 19.7301 396.073 18.5887 400.62L20.0436 400.985ZM25.1226 370.98C25.6567 366.118 26.1065 361.063 26.4772 355.851L24.9809 355.744C24.6115 360.94 24.1633 365.975 23.6316 370.816L25.1226 370.98ZM27.3218 340.656C27.5267 335.683 27.6704 330.609 27.7568 325.461L26.2571 325.435C26.1708 330.572 26.0274 335.634 25.8231 340.594L27.3218 340.656ZM27.8501 310.261C27.8298 305.231 27.7607 300.157 27.646 295.063L26.1464 295.097C26.2608 300.182 26.3299 305.247 26.3501 310.267L27.8501 310.261ZM27.1738 279.872C26.9737 274.801 26.732 269.734 26.4521 264.693L24.9544 264.776C25.2339 269.809 25.4752 274.868 25.675 279.931L27.1738 279.872ZM25.49 249.527C25.1254 244.415 24.7237 239.356 24.2883 234.376L22.794 234.506C23.2287 239.479 23.6298 244.53 23.9938 249.633L25.49 249.527ZM22.838 219.244C22.2989 214.087 21.7251 209.05 21.121 204.165L19.6323 204.349C20.2352 209.224 20.808 214.251 21.3461 219.4L22.838 219.244ZM19.0869 189.072C18.3127 183.795 17.5035 178.771 16.6663 174.049L15.1894 174.311C16.0236 179.017 16.8305 184.026 17.6028 189.289L19.0869 189.072ZM13.7004 159.134C13.1138 156.525 12.5182 154.071 11.9155 151.784L10.4651 152.167C11.0624 154.433 11.6537 156.87 12.237 159.463L13.7004 159.134ZM11.0741 152.717C13.3334 153.071 15.8016 153.375 18.466 153.617L18.6019 152.123C15.9666 151.883 13.5307 151.583 11.3065 151.235L11.0741 152.717ZM33.3683 154.267C37.9873 154.276 42.9556 154.128 48.2385 153.79L48.1428 152.293C42.8916 152.629 37.9563 152.776 33.3714 152.767L33.3683 154.267ZM63.0706 152.416C67.8003 151.846 72.718 151.133 77.8053 150.259L77.5514 148.781C72.4888 149.651 67.596 150.36 62.8913 150.926L63.0706 152.416ZM92.4057 147.395C97.1106 146.358 101.932 145.186 106.857 143.868L106.469 142.419C101.566 143.731 96.7662 144.898 92.0828 145.93L92.4057 147.395ZM121.151 139.712C125.783 138.258 130.491 136.674 135.265 134.954L134.757 133.543C130.002 135.256 125.314 136.833 120.702 138.281L121.151 139.712ZM149.137 129.635C153.653 127.797 158.219 125.836 162.827 123.745L162.207 122.379C157.618 124.462 153.07 126.415 148.571 128.245L149.137 129.635ZM176.227 117.345C180.594 115.155 184.991 112.845 189.412 110.412L188.689 109.098C184.284 111.522 179.904 113.822 175.555 116.004L176.227 117.345ZM202.294 103.004C206.482 100.49 210.686 97.863 214.902 95.1173L214.083 93.8604C209.883 96.596 205.694 99.2136 201.522 101.718L202.294 103.004ZM227.233 86.7641C231.229 83.9512 235.231 81.029 239.235 77.9937L238.329 76.7984C234.339 79.8229 230.351 82.7347 226.37 85.5375L227.233 86.7641ZM250.92 68.8134C252.839 67.2522 254.757 65.6643 256.674 64.0492L255.707 62.9021C253.797 64.5117 251.885 66.0942 249.974 67.65L250.92 68.8134ZM256.674 64.0492C258.712 62.332 260.748 60.6577 262.781 59.0254L261.842 57.8556C259.8 59.4954 257.754 61.1773 255.707 62.9021L256.674 64.0492ZM275.245 49.5127C279.594 46.3625 283.927 43.3989 288.239 40.6131L287.425 39.3532C283.09 42.1535 278.736 45.1323 274.365 48.2979L275.245 49.5127ZM301.66 32.4655C306.322 29.8151 310.953 27.3667 315.547 25.109L314.886 23.7628C310.264 26.0338 305.607 28.4964 300.919 31.1616L301.66 32.4655ZM329.84 18.6368C334.799 16.5801 339.707 14.7397 344.556 13.1005L344.076 11.6795C339.195 13.3294 334.256 15.1817 329.265 17.2512L329.84 18.6368ZM359.591 8.59477C364.779 7.2375 369.886 6.10497 374.901 5.17738L374.629 3.70239C369.578 4.63658 364.435 5.77704 359.211 7.1436L359.591 8.59477ZM390.427 2.90565C395.78 2.32927 401.005 1.98083 406.089 1.83304L406.045 0.333676C400.923 0.482582 395.658 0.833658 390.266 1.41427L390.427 2.90565ZM421.792 2.00861C427.211 2.2902 432.427 2.79363 437.42 3.47888L437.624 1.99281C432.59 1.30189 427.332 0.794436 421.87 0.510633L421.792 2.00861ZM452.832 6.29518C458.233 7.53853 463.275 8.98261 467.923 10.5573L468.404 9.13659C463.709 7.54563 458.618 6.08789 453.169 4.83341L452.832 6.29518ZM482.428 16.4461C484.928 17.6565 487.225 18.8889 489.309 20.1212L490.072 18.8301C487.951 17.5752 485.616 16.3232 483.081 15.096L482.428 16.4461Z" fill="#FF8219"/>
</svg>
