<svg width="1350" height="1390" viewBox="0 0 1350 1390" fill="none" xmlns="http://www.w3.org/2000/svg">
<path d="M1343.13 1175C1309.17 1252.23 1221.88 1396.54 1144.44 1355.93C1067 1315.32 1061.91 1269.32 1069.04 1251.39C1077.7 1210.35 1035.93 1159.52 799.54 1284.57C563.152 1409.61 187.439 1411.18 54.1309 1344" stroke="#FF8219" stroke-width="2" stroke-dasharray="15 15"/>
<path d="M1318.63 326.5C1184.63 306 927.23 309 969.63 485C1022.63 705 1318.63 615.5 1318.63 732" stroke="#FF8219" stroke-dasharray="15 15"/>
<path d="M1349.13 38.5203C1318.13 36.0348 1345.07 -38.9468 1108.26 30.2351C871.454 99.417 849.497 299.47 515.631 280C181.765 260.53 230.033 131.587 80.6315 146.5C-38.8894 158.431 8.07838 216.653 14.1764 235.709" stroke="#FF8219" stroke-dasharray="15 15"/>
</svg>
