<svg width="48" height="54" viewBox="0 0 48 54" fill="none" xmlns="http://www.w3.org/2000/svg">
<rect x="1" y="1" width="46" height="52" rx="4" stroke="#FF8219" stroke-width="2"/>
<path d="M22.2929 47.7071C22.6834 48.0976 23.3166 48.0976 23.7071 47.7071L30.0711 41.3431C30.4616 40.9526 30.4616 40.3195 30.0711 39.9289C29.6805 39.5384 29.0474 39.5384 28.6569 39.9289L23 45.5858L17.3431 39.9289C16.9526 39.5384 16.3195 39.5384 15.9289 39.9289C15.5384 40.3195 15.5384 40.9526 15.9289 41.3431L22.2929 47.7071ZM22 5L22 47H24L24 5H22Z" fill="#FF8219"/>
<path d="M23.7071 4.29289C23.3166 3.90237 22.6834 3.90237 22.2929 4.29289L15.9289 10.6569C15.5384 11.0474 15.5384 11.6805 15.9289 12.0711C16.3195 12.4616 16.9526 12.4616 17.3431 12.0711L23 6.41422L28.6569 12.0711C29.0474 12.4616 29.6805 12.4616 30.0711 12.0711C30.4616 11.6805 30.4616 11.0474 30.0711 10.6569L23.7071 4.29289ZM24 47L24 5H22L22 47H24Z" fill="#FF8219"/>
</svg>
