<svg width="31" height="31" viewBox="0 0 31 31" fill="none" xmlns="http://www.w3.org/2000/svg">
<path d="M7.18993 27.9343V30H1V13.0612L7.18993 13.0612V14.7137M7.18993 27.9343C8.42792 27.6589 11.7292 30 12.9672 30H24.9344C26.5851 29.7246 29.3086 28.4301 26.9977 25.4554M7.18993 27.9343V14.7137M26.9977 25.4554H24.1091M26.9977 25.4554C28.3733 24.4914 30.299 22.2329 26.9977 20.9109M26.9977 20.9109H24.9344M26.9977 20.9109C29.4737 20.9109 30.3815 17.6884 27.4104 16.3663M27.4104 16.3663H24.9344M27.4104 16.3663C29.8864 16.3663 31.537 12.648 27.823 11.8217H18.7445C19.8449 8.92975 21.669 2.19371 18.3318 1.08007C17.0938 0.666945 15.8558 1.90634 15.8558 3.55891C15.8558 4.93604 15.113 8.18609 12.1419 10.1692C9.17071 12.1522 7.46504 14.0252 7.18993 14.7137" stroke="#FF8219" stroke-linecap="round" stroke-linejoin="round"/>
</svg>
