<svg width="40" height="58" viewBox="0 0 40 58" fill="none" xmlns="http://www.w3.org/2000/svg">
<path d="M39 20.3784C39 22.959 37.8346 26.5472 35.9674 30.5851C34.117 34.5864 31.641 38.8979 29.152 42.8796C26.6652 46.8579 24.1766 50.4889 22.3089 53.1264C21.3754 54.4447 20.5978 55.5136 20.054 56.2523C20.0358 56.2771 20.0177 56.3015 20 56.3256C19.9823 56.3015 19.9642 56.2771 19.946 56.2523C19.4022 55.5136 18.6246 54.4447 17.6911 53.1264C15.8234 50.4889 13.3348 46.8579 10.848 42.8796C8.35895 38.8979 5.88302 34.5864 4.03265 30.5851C2.16539 26.5472 1 22.959 1 20.3784C1 9.65824 9.52418 1 20 1C30.4758 1 39 9.65824 39 20.3784Z" stroke="#FF8219" stroke-width="2" stroke-linejoin="round"/>
<circle cx="19.5" cy="10.5" r="4.5" fill="#FF8219"/>
<circle cx="19.5" cy="23.5" r="4.5" fill="#FF8219"/>
<circle cx="19.5" cy="36.5" r="4.5" fill="#FF8219"/>
</svg>
