<svg width="42" height="58" viewBox="0 0 42 58" fill="none" xmlns="http://www.w3.org/2000/svg">
<path d="M30.6486 17.6565C32.1622 14.4366 32.3514 7.99681 21 7.99681C9.64865 7.99681 9.08108 14.4366 10.2162 17.6565M9.27311 17.989L9.46794 18.5417L10.0453 18.6418C18.6106 20.1275 23.1298 19.8942 30.8094 18.6435L31.3295 18.5588L31.5537 18.0819C32.3836 16.3163 32.9271 13.5231 31.5108 11.1126C30.0644 8.6509 26.824 6.99681 21 6.99681C15.1585 6.99681 11.7907 8.65694 10.1084 11.043C8.44609 13.4006 8.63544 16.1802 9.27311 17.989ZM29.9447 16.7571C22.9578 17.8718 18.7124 18.0679 10.9954 16.775C10.6579 15.4133 10.7123 13.6572 11.743 12.1954C12.8985 10.5566 15.4901 8.99681 21 8.99681C26.5273 8.99681 28.868 10.5626 29.7865 12.1258C30.6359 13.5714 30.4779 15.3556 29.9447 16.7571ZM12.8107 23.7165C15.308 22.8605 22.2037 21.6222 29.2262 23.7283L29.8008 21.8126C22.2936 19.5611 14.9623 20.8648 12.1622 21.8245L12.8107 23.7165ZM4.9177 25.0699L5.1738 24.7237L5.0983 24.2998L4.38991 20.3223L4.35651 20.1347L4.25647 19.9725C2.34413 16.8728 1.02916 12.3648 2.76612 8.61609C4.46888 4.9412 9.35768 1.49078 21.0385 1.041C32.7045 0.591794 37.54 3.87896 39.229 7.63943C40.9791 11.5359 39.6514 16.5137 37.7191 20.0143L37.6391 20.1593L37.6101 20.3223L36.9017 24.2998L36.8262 24.7237L37.0823 25.0699C39.5443 28.3977 41 32.5151 41 36.9759C41 48.036 32.0446 57 21 57C9.95539 57 1 48.036 1 36.9759C1 32.5151 2.45573 28.3977 4.9177 25.0699Z" stroke="#FF8219" stroke-width="2"/>
</svg>
